<?xml version="1.0" standalone="no"?>
<!DOCTYPE svg PUBLIC "-//W3C//DTD SVG 20010904//EN"
 "http://www.w3.org/TR/2001/REC-SVG-20010904/DTD/svg10.dtd">
<svg version="1.0" xmlns="http://www.w3.org/2000/svg"
 width="16.000000pt" height="16.000000pt" viewBox="0 0 16.000000 16.000000"
 preserveAspectRatio="xMidYMid meet">
<metadata>
Created by potrace 1.11, written by Peter Selinger 2001-2013
</metadata>
<g transform="translate(0.000000,16.000000) scale(0.003200,-0.003200)"
fill="#000000" stroke="none">
<path d="M4230 4604 c-105 -88 -376 -287 -500 -369 -593 -390 -1145 -597
-1735 -651 -38 -3 -408 -6 -822 -6 -413 -1 -775 -4 -803 -9 -170 -27 -324
-175 -359 -346 -16 -77 -14 -653 3 -724 20 -86 54 -147 120 -214 66 -66 136
-105 224 -124 29 -6 138 -11 241 -11 l188 0 -23 -95 c-12 -52 -28 -138 -34
-191 -12 -103 -16 -336 -5 -394 3 -19 10 -62 16 -95 23 -133 83 -344 167 -590
87 -253 90 -261 128 -287 228 -159 641 -178 911 -42 72 36 153 107 179 155 13
27 12 28 -80 103 -162 132 -282 276 -307 370 -26 94 -14 208 29 293 l19 36
-39 56 c-48 68 -68 134 -68 222 0 186 123 364 299 433 51 20 95 17 281 -15
616 -107 1219 -397 1854 -894 70 -55 139 -108 153 -119 22 -17 30 -17 85 -6
109 21 205 100 257 210 l26 55 3 576 3 577 52 6 c133 18 264 136 292 265 27
124 -8 245 -94 331 -64 64 -107 87 -191 102 l-59 11 -3 576 -3 576 -33 67
c-53 108 -162 189 -272 202 -42 5 -48 3 -100 -40z m55 -1734 c0 -732 -1 -1330
-3 -1330 -2 0 -67 45 -144 101 -276 199 -518 345 -790 479 -388 191 -738 299
-1188 365 -13 2 -15 53 -18 378 l-2 376 32 5 c18 3 76 13 128 21 539 88 1074
313 1640 691 85 56 196 134 245 172 50 39 92 70 95 71 3 1 5 -597 5 -1329z"/>
</g>
</svg>
